<?xml version="1.0"?>
<svg xmlns="http://www.w3.org/2000/svg" xmlns:xlink="http://www.w3.org/1999/xlink" xmlns:svgjs="http://svgjs.com/svgjs" version="1.1" width="512" height="512" x="0" y="0" viewBox="0 0 512 512" style="enable-background:new 0 0 512 512" xml:space="preserve"><g><path xmlns="http://www.w3.org/2000/svg" d="m504.484375 464.90625h-32.0625c-4.148437 0-7.515625 3.367188-7.515625 7.515625v8.515625h-139.429688c21.34375-9.714844 40.609376-23.894531 56.414063-41.804688 25.382813-28.773437 40.0625-65.265624 41.769531-103.476562h8.683594c4.152344 0 7.515625-3.367188 7.515625-7.515625v-32.0625c0-4.148437-3.363281-7.515625-7.515625-7.515625h-32.0625c-4.152344 0-7.515625 3.367188-7.515625 7.515625v32.0625c0 4.148437 3.363281 7.515625 7.515625 7.515625h8.328125c-3.542969 71.949219-57.625 132.429688-129.0625 143.476562v-6.710937c0-4.148437-3.363281-7.515625-7.515625-7.515625h-32.0625c-4.152344 0-7.515625 3.367188-7.515625 7.515625v6.710937c-71.503906-11.050781-125.535156-71.386718-129.0625-143.476562h8.328125c4.152344 0 7.515625-3.367188 7.515625-7.515625v-32.0625c0-4.148437-3.363281-7.515625-7.515625-7.515625h-32.0625c-4.152344 0-7.515625 3.367188-7.515625 7.515625v32.0625c0 4.148437 3.363281 7.515625 7.515625 7.515625h8.6875c2.851562 63.984375 41.929688 119.644531 98.152344 145.28125h-139.402344v-8.515625c0-4.148437-3.367188-7.515625-7.515625-7.515625h-32.0625c-4.152344 0-7.515625 3.367188-7.515625 7.515625v32.0625c0 4.152344 3.363281 7.515625 7.515625 7.515625h32.0625c4.148437 0 7.515625-3.363281 7.515625-7.515625v-8.515625h185.359375v8.515625c0 4.152344 3.363281 7.515625 7.515625 7.515625h32.0625c4.152344 0 7.515625-3.363281 7.515625-7.515625v-8.515625h185.359375v8.515625c0 4.152344 3.367188 7.515625 7.515625 7.515625h32.0625c4.152344 0 7.515625-3.363281 7.515625-7.515625v-32.0625c0-4.148437-3.363281-7.515625-7.515625-7.515625zm-96.6875-161.3125h17.03125v17.03125h-17.03125zm-320.625 0h17.03125v17.03125h-17.03125zm-55.109375 193.375h-17.03125v-17.03125h17.03125zm232.453125 0h-17.03125v-17.03125h17.03125zm232.453125 0h-17.03125v-17.03125h17.03125zm0 0" fill="#ffffff" data-original="#000000" style=""/><path xmlns="http://www.w3.org/2000/svg" d="m249.660156 460.425781c2.898438 4.558594 9.78125 4.558594 12.679688 0l112.21875-176.34375c1.246094-1.960937 1.519531-4.382812.734375-6.566406l-26.371094-73.707031c-1.398437-3.910156-5.699219-5.941406-9.605469-4.546875-3.910156 1.398437-5.941406 5.699219-4.542968 9.609375l25.132812 70.242187-96.390625 151.472657v-135.917969c13.785156-3.382813 24.046875-15.839844 24.046875-30.652344 0-17.402344-14.160156-31.5625-31.5625-31.5625s-31.5625 14.160156-31.5625 31.5625c0 14.8125 10.261719 27.269531 24.046875 30.652344v135.917969l-96.445313-151.554688 45.25-135.75h117.175782l10.257812 35.738281c1.148438 3.988281 5.3125 6.292969 9.296875 5.148438 3.988281-1.144531 6.296875-5.308594 5.152344-9.296875l-9.070313-31.589844h6.054688c4.152344 0 7.515625-3.367188 7.515625-7.515625v-32.0625c0-4.152344-3.363281-7.515625-7.515625-7.515625h-8.515625v-88.671875c0-4.152344-3.363281-7.515625-7.515625-7.515625s-7.515625 3.363281-7.515625 7.515625v88.671875h-113.21875v-88.671875c0-4.152344-3.363281-7.515625-7.515625-7.515625s-7.515625 3.363281-7.515625 7.515625v88.671875h-8.515625c-4.152344 0-7.515625 3.363281-7.515625 7.515625v32.0625c0 4.148437 3.363281 7.515625 7.515625 7.515625h5.605469l-44.796875 134.390625c-.714844 2.144531-.425782 4.5.789062 6.410156zm-10.191406-196.410156c0-9.117187 7.414062-16.53125 16.53125-16.53125s16.53125 7.414063 16.53125 16.53125-7.414062 16.53125-16.53125 16.53125-16.53125-7.414063-16.53125-16.53125zm-56.109375-152.796875h145.28125v17.03125h-145.28125zm0 0" fill="#ffffff" data-original="#000000" style=""/></g></svg>
